<?xml version="1.0" encoding="UTF-8" standalone="no"?>
<svg
   xmlns:dc="http://purl.org/dc/elements/1.1/"
   xmlns:cc="http://creativecommons.org/ns#"
   xmlns:rdf="http://www.w3.org/1999/02/22-rdf-syntax-ns#"
   xmlns:svg="http://www.w3.org/2000/svg"
   xmlns="http://www.w3.org/2000/svg"
   xmlns:sodipodi="http://sodipodi.sourceforge.net/DTD/sodipodi-0.dtd"
   xmlns:inkscape="http://www.inkscape.org/namespaces/inkscape"
   viewBox="0 0 598.6 279.6"
   version="1.1"
   id="svg12"
   sodipodi:docname="reddit-logo.svg"
   inkscape:version="0.92.2 (5c3e80d, 2017-08-06)">
  <metadata
     id="metadata18">
    <rdf:RDF>
      <cc:Work
         rdf:about="">
        <dc:format>image/svg+xml</dc:format>
        <dc:type
           rdf:resource="http://purl.org/dc/dcmitype/StillImage" />
      </cc:Work>
    </rdf:RDF>
  </metadata>
  <defs
     id="defs16">
    <clipPath
       id="clipPath20">
      <path
         inkscape:connector-curvature="0"
         d="M 0,792 H 612 V 0 H 0 Z"
         id="path22" />
    </clipPath>
  </defs>
  <sodipodi:namedview
     pagecolor="#ffffff"
     bordercolor="#666666"
     borderopacity="1"
     objecttolerance="10"
     gridtolerance="10"
     guidetolerance="10"
     inkscape:pageopacity="0"
     inkscape:pageshadow="2"
     inkscape:window-width="1600"
     inkscape:window-height="837"
     id="namedview14"
     showgrid="false"
     inkscape:zoom="0.47945207"
     inkscape:cx="299.29999"
     inkscape:cy="56.371435"
     inkscape:window-x="-8"
     inkscape:window-y="-8"
     inkscape:window-maximized="1"
     inkscape:current-layer="g18" />
  <style
     id="style2">.st0{fill:#ff4500}</style>
  <circle
     cx="495.4"
     cy="113.7"
     r="10.6"
     class="st0"
     id="circle4"
     inkscape:export-filename="C:\Users\suitedoalex\sites\reddit-logo-14.png"
     inkscape:export-xdpi="9.8641949"
     inkscape:export-ydpi="9.8641949" />
  <path
     fill="#222"
     d="M344 158.9c5.2 0 8.2-3.9 8-7.7-.1-2-.3-3.3-.5-4.3-3.2-13.8-14.4-24-27.7-24-15.8 0-28.6 14.3-28.6 31.9 0 17.6 12.8 31.9 28.6 31.9 9.9 0 17-3.6 22.1-9.3 2.5-2.8 2-7.1-1-9.2-2.5-1.7-5.6-1.1-7.9.8-2.2 1.9-6.4 5.7-13.2 5.7-8 0-14.8-6.9-16.3-16H344zM323.7 135c7.2 0 13.4 5.6 15.7 13.3H308c2.3-7.8 8.5-13.3 15.7-13.3zm-27.9-5.8a6 6 0 0 0-5-5.9 23.1 23.1 0 0 0-21.6 7.8v-.8c0-3.7-3-6-6-6a6 6 0 0 0-6 6v49c0 3.2 2.4 6 5.6 6.2a6 6 0 0 0 6.4-6v-25.3c0-11.2 8.4-20.4 20-19.1h1.2c3-.2 5.4-2.8 5.4-5.9zm205.6 6.4c0-3.3-2.7-6-6-6s-6 2.7-6 6v43.9c0 3.3 2.7 6 6 6s6-2.7 6-6v-43.9zm-89.2-33.2a6 6 0 0 0-6-6 6 6 0 0 0-6 6v26.7a20.7 20.7 0 0 0-15.3-6.1c-15.8 0-28.6 14.3-28.6 31.9 0 17.6 12.8 31.9 28.6 31.9a21 21 0 0 0 15.4-6.2 6 6 0 0 0 11.9-1.1v-77.1zM385 174.9c-9.2 0-16.6-8.9-16.6-20 0-11 7.4-20 16.6-20 9.2 0 16.6 8.9 16.6 20s-7.5 20-16.6 20zm89.8-72.5a6 6 0 0 0-6-6 6 6 0 0 0-6 6v26.7a20.7 20.7 0 0 0-15.3-6.1c-15.8 0-28.6 14.3-28.6 31.9 0 17.6 12.8 31.9 28.6 31.9a21 21 0 0 0 15.4-6.2 6 6 0 0 0 11.9-1.1v-77.1zm-27.3 72.5c-9.2 0-16.6-8.9-16.6-20 0-11 7.4-20 16.6-20 9.2 0 16.6 8.9 16.6 20s-7.4 20-16.6 20zm84.3 4.7V135h5.3c2.8 0 5.3-2.1 5.5-5a5.4 5.4 0 0 0-5.3-5.7h-5.5v-8.4c0-3.2-2.4-6-5.6-6.2a6 6 0 0 0-6.4 6v8.7h-5a5.5 5.5 0 0 0-5.5 5 5.4 5.4 0 0 0 5.3 5.7h5.1v44.6a6 6 0 0 0 6 6c3.5-.2 6.1-2.8 6.1-6.1z"
     id="path6"
     inkscape:export-filename="C:\Users\suitedoalex\sites\reddit-logo-14.png"
     inkscape:export-xdpi="9.8641949"
     inkscape:export-ydpi="9.8641949" />
  <circle
     cx="139.8"
     cy="139.8"
     r="83.8"
     class="st0"
     id="circle8"
     inkscape:export-filename="C:\Users\suitedoalex\sites\reddit-logo-16.png"
     inkscape:export-xdpi="2004.7732"
     inkscape:export-ydpi="2004.7732" />
  <path
     fill="#fff"
     d="M195.7 139.8A12.2 12.2 0 0 0 175 131c-8.4-6-19.9-9.9-32.7-10.4l5.6-26.2 18.2 3.9a8.7 8.7 0 1 0 .9-4.2l-20.3-4.3c-.6-.1-1.2 0-1.6.3a2 2 0 0 0-.9 1.4l-6.2 29.2c-13 .4-24.7 4.3-33.2 10.4A12.2 12.2 0 1 0 91.3 151c-.2 1.2-.3 2.4-.3 3.7 0 18.8 21.9 34.1 48.9 34.1s48.9-15.2 48.9-34.1a23 23 0 0 0-.3-3.7c4.2-1.9 7.2-6.2 7.2-11.2zm-83.8 8.7a8.7 8.7 0 1 1 17.4 0 8.7 8.7 0 0 1-17.4 0zm48.7 23.1c-6 6-17.4 6.4-20.7 6.4-3.4 0-14.8-.5-20.7-6.4-.9-.9-.9-2.3 0-3.2.9-.9 2.3-.9 3.2 0 3.8 3.8 11.8 5.1 17.5 5.1 5.7 0 13.8-1.3 17.5-5.1.9-.9 2.3-.9 3.2 0 .8.9.8 2.3 0 3.2zm-1.6-14.3a8.7 8.7 0 1 1 0-17.4 8.7 8.7 0 0 1 0 17.4z"
     id="path10"
     inkscape:export-filename="C:\Users\suitedoalex\sites\reddit-logo-16.png"
     inkscape:export-xdpi="2004.7732"
     inkscape:export-ydpi="2004.7732" />
  <g
     transform="matrix(4.8047042,0,0,-4.8047042,-1149.5506,2320.9742)"
     id="g12"
     inkscape:export-filename="C:\Users\suitedoalex\sites\reddit-logo-15.png"
     inkscape:export-xdpi="9.0086861"
     inkscape:export-ydpi="9.0086861">
    <g
       id="g16">
      <g
         clip-path="url(#clipPath20)"
         id="g18">
        <g
           transform="translate(265.3481,392.7275)"
           id="g24"
           inkscape:export-filename="C:\Users\suitedoalex\sites\reddit-logo-17.png"
           inkscape:export-xdpi="2095.1289"
           inkscape:export-ydpi="2095.1289">
          <path
             inkscape:connector-curvature="0"
             d="m 0,0 c 2.437,0 4.412,-2.383 4.412,-5.324 0,-2.942 -1.975,-5.324 -4.412,-5.324 -2.437,0 -4.41,2.382 -4.41,5.324 C -4.41,-2.383 -2.437,0 0,0"
             id="path26"
             style="fill:#ffffff;fill-opacity:1;fill-rule:nonzero;stroke:none" />
        </g>
        <g
           transform="translate(265.3481,392.7275)"
           id="g28"
           inkscape:export-filename="C:\Users\suitedoalex\sites\reddit-logo-17.png"
           inkscape:export-xdpi="2095.1289"
           inkscape:export-ydpi="2095.1289">
          <path
             inkscape:connector-curvature="0"
             d="m 0,0 c 2.437,0 4.412,-2.383 4.412,-5.324 0,-2.942 -1.975,-5.324 -4.412,-5.324 -2.437,0 -4.41,2.382 -4.41,5.324 C -4.41,-2.383 -2.437,0 0,0 Z"
             id="path30"
             style="fill:none;stroke:#000000;stroke-width:1.10000002;stroke-linecap:butt;stroke-linejoin:miter;stroke-miterlimit:4;stroke-dasharray:none;stroke-opacity:1" />
        </g>
        <g
           transform="translate(258.4063,376.5361)"
           id="g32"
           inkscape:export-filename="C:\Users\suitedoalex\sites\reddit-logo-17.png"
           inkscape:export-xdpi="2095.1289"
           inkscape:export-ydpi="2095.1289">
          <path
             inkscape:connector-curvature="0"
             d="m 0,0 c 0.063,0.197 0.108,0.401 0.108,0.615 0,1.361 -1.361,2.464 -3.04,2.464 -1.679,0 -3.039,-1.103 -3.039,-2.464 0,-0.214 0.044,-0.418 0.108,-0.615 z"
             id="path34"
             style="fill:#ffffff;fill-opacity:1;fill-rule:nonzero;stroke:none" />
        </g>
        <g
           transform="translate(258.4063,376.5361)"
           id="g36"
           inkscape:export-filename="C:\Users\suitedoalex\sites\reddit-logo-17.png"
           inkscape:export-xdpi="2095.1289"
           inkscape:export-ydpi="2095.1289">
          <path
             inkscape:connector-curvature="0"
             d="m 0,0 c 0.063,0.197 0.108,0.401 0.108,0.615 0,1.361 -1.361,2.464 -3.04,2.464 -1.679,0 -3.039,-1.103 -3.039,-2.464 0,-0.214 0.044,-0.418 0.108,-0.615 z"
             id="path38"
             style="fill:none;stroke:#000000;stroke-width:1.10000002;stroke-linecap:round;stroke-linejoin:round;stroke-miterlimit:4;stroke-dasharray:none;stroke-opacity:1" />
        </g>
        <g
           transform="translate(269.0518,376.5361)"
           id="g40"
           inkscape:export-filename="C:\Users\suitedoalex\sites\reddit-logo-17.png"
           inkscape:export-xdpi="2095.1289"
           inkscape:export-ydpi="2095.1289">
          <path
             inkscape:connector-curvature="0"
             d="m 0,0 c 0.063,0.197 0.107,0.401 0.107,0.615 0,1.361 -1.361,2.464 -3.04,2.464 -1.679,0 -3.039,-1.103 -3.039,-2.464 0,-0.214 0.044,-0.418 0.107,-0.615 z"
             id="path42"
             style="fill:#ffffff;fill-opacity:1;fill-rule:nonzero;stroke:none" />
        </g>
        <g
           transform="translate(269.0518,376.5361)"
           id="g44"
           inkscape:export-filename="C:\Users\suitedoalex\sites\reddit-logo-17.png"
           inkscape:export-xdpi="2095.1289"
           inkscape:export-ydpi="2095.1289">
          <path
             inkscape:connector-curvature="0"
             d="m 0,0 c 0.063,0.197 0.107,0.401 0.107,0.615 0,1.361 -1.361,2.464 -3.04,2.464 -1.679,0 -3.039,-1.103 -3.039,-2.464 0,-0.214 0.044,-0.418 0.107,-0.615 z"
             id="path46"
             style="fill:none;stroke:#000000;stroke-width:1.10000002;stroke-linecap:round;stroke-linejoin:round;stroke-miterlimit:4;stroke-dasharray:none;stroke-opacity:1" />
        </g>
        <g
           transform="translate(252.4888,403.9858)"
           id="g48"
           inkscape:export-filename="C:\Users\suitedoalex\sites\reddit-logo-17.png"
           inkscape:export-xdpi="2095.1289"
           inkscape:export-ydpi="2095.1289">
          <path
             inkscape:connector-curvature="0"
             d="m 0,0 c 0,-1.493 -1.21,-2.702 -2.703,-2.702 -1.492,0 -2.701,1.209 -2.701,2.702 0,1.493 1.209,2.703 2.701,2.703 C -1.21,2.703 0,1.493 0,0"
             id="path50"
             style="fill:#ffffff;fill-opacity:1;fill-rule:nonzero;stroke:none" />
        </g>
        <g
           transform="translate(252.4888,403.9858)"
           id="g52"
           inkscape:export-filename="C:\Users\suitedoalex\sites\reddit-logo-17.png"
           inkscape:export-xdpi="2095.1289"
           inkscape:export-ydpi="2095.1289">
          <path
             inkscape:connector-curvature="0"
             d="m 0,0 c 0,-1.493 -1.21,-2.702 -2.703,-2.702 -1.492,0 -2.701,1.209 -2.701,2.702 0,1.493 1.209,2.703 2.701,2.703 C -1.21,2.703 0,1.493 0,0 Z"
             id="path54"
             style="fill:none;stroke:#000000;stroke-width:1.10000002;stroke-linecap:butt;stroke-linejoin:miter;stroke-miterlimit:4;stroke-dasharray:none;stroke-opacity:1" />
        </g>
        <g
           transform="translate(274.5913,403.9858)"
           id="g56"
           inkscape:export-filename="C:\Users\suitedoalex\sites\reddit-logo-17.png"
           inkscape:export-xdpi="2095.1289"
           inkscape:export-ydpi="2095.1289">
          <path
             inkscape:connector-curvature="0"
             d="m 0,0 c 0,-1.493 -1.21,-2.702 -2.703,-2.702 -1.492,0 -2.701,1.209 -2.701,2.702 0,1.493 1.209,2.703 2.701,2.703 C -1.21,2.703 0,1.493 0,0"
             id="path58"
             style="fill:#ffffff;fill-opacity:1;fill-rule:nonzero;stroke:none" />
        </g>
        <g
           transform="translate(274.5913,403.9858)"
           id="g60"
           inkscape:export-filename="C:\Users\suitedoalex\sites\reddit-logo-17.png"
           inkscape:export-xdpi="2095.1289"
           inkscape:export-ydpi="2095.1289">
          <path
             inkscape:connector-curvature="0"
             d="m 0,0 c 0,-1.493 -1.21,-2.702 -2.703,-2.702 -1.492,0 -2.701,1.209 -2.701,2.702 0,1.493 1.209,2.703 2.701,2.703 C -1.21,2.703 0,1.493 0,0 Z"
             id="path62"
             style="fill:none;stroke:#000000;stroke-width:1.10000002;stroke-linecap:butt;stroke-linejoin:miter;stroke-miterlimit:4;stroke-dasharray:none;stroke-opacity:1" />
        </g>
        <g
           transform="translate(268.3286,413.4697)"
           id="g64"
           inkscape:export-filename="C:\Users\suitedoalex\sites\reddit-logo-17.png"
           inkscape:export-xdpi="2095.1289"
           inkscape:export-ydpi="2095.1289">
          <path
             inkscape:connector-curvature="0"
             d="M 0,0 -5.404,1.272 -7.39,-5.006"
             id="path66"
             style="fill:none;stroke:#000000;stroke-width:1.10000002;stroke-linecap:round;stroke-linejoin:round;stroke-miterlimit:4;stroke-dasharray:none;stroke-opacity:1" />
        </g>
        <g
           transform="translate(256.2495,392.7275)"
           id="g68"
           inkscape:export-filename="C:\Users\suitedoalex\sites\reddit-logo-17.png"
           inkscape:export-xdpi="2095.1289"
           inkscape:export-ydpi="2095.1289">
          <path
             inkscape:connector-curvature="0"
             d="m 0,0 c 2.437,0 4.411,-2.383 4.411,-5.324 0,-2.942 -1.974,-5.324 -4.411,-5.324 -2.436,0 -4.41,2.382 -4.41,5.324 C -4.41,-2.383 -2.436,0 0,0"
             id="path70"
             style="fill:#ffffff;fill-opacity:1;fill-rule:nonzero;stroke:none" />
        </g>
        <g
           transform="translate(256.2495,392.7275)"
           id="g72"
           inkscape:export-filename="C:\Users\suitedoalex\sites\reddit-logo-17.png"
           inkscape:export-xdpi="2095.1289"
           inkscape:export-ydpi="2095.1289">
          <path
             inkscape:connector-curvature="0"
             d="m 0,0 c 2.437,0 4.411,-2.383 4.411,-5.324 0,-2.942 -1.974,-5.324 -4.411,-5.324 -2.436,0 -4.41,2.382 -4.41,5.324 C -4.41,-2.383 -2.436,0 0,0 Z"
             id="path74"
             style="fill:none;stroke:#000000;stroke-width:1.10000002;stroke-linecap:butt;stroke-linejoin:miter;stroke-miterlimit:4;stroke-dasharray:none;stroke-opacity:1" />
        </g>
        <g
           transform="translate(272.6641,413.0327)"
           id="g76"
           inkscape:export-filename="C:\Users\suitedoalex\sites\reddit-logo-17.png"
           inkscape:export-xdpi="2095.1289"
           inkscape:export-ydpi="2095.1289">
          <path
             inkscape:connector-curvature="0"
             d="m 0,0 c 0,-1.176 -0.954,-2.13 -2.129,-2.13 -1.178,0 -2.131,0.954 -2.131,2.13 0,1.177 0.953,2.13 2.131,2.13 C -0.954,2.13 0,1.177 0,0"
             id="path78"
             style="fill:#ffffff;fill-opacity:1;fill-rule:nonzero;stroke:none" />
        </g>
        <g
           transform="translate(272.6641,413.0327)"
           id="g80"
           inkscape:export-filename="C:\Users\suitedoalex\sites\reddit-logo-17.png"
           inkscape:export-xdpi="2095.1289"
           inkscape:export-ydpi="2095.1289">
          <path
             inkscape:connector-curvature="0"
             d="m 0,0 c 0,-1.176 -0.954,-2.13 -2.129,-2.13 -1.178,0 -2.131,0.954 -2.131,2.13 0,1.177 0.953,2.13 2.131,2.13 C -0.954,2.13 0,1.177 0,0 Z"
             id="path82"
             style="fill:none;stroke:#000000;stroke-width:1.10000002;stroke-linecap:butt;stroke-linejoin:miter;stroke-miterlimit:4;stroke-dasharray:none;stroke-opacity:1" />
        </g>
        <g
           transform="translate(259.2842,376.5332)"
           id="g84"
           inkscape:export-filename="C:\Users\suitedoalex\sites\reddit-logo-17.png"
           inkscape:export-xdpi="2095.1289"
           inkscape:export-ydpi="2095.1289">
          <path
             inkscape:connector-curvature="0"
             d="m 0,0 h 2.99 c 2.656,1.382 4.624,6.34 4.624,12.261 0,6.99 -2.74,12.656 -6.119,12.656 -3.38,0 -6.119,-5.666 -6.119,-12.656 C -4.624,6.34 -2.656,1.382 0,0"
             id="path86"
             style="fill:#ffffff;fill-opacity:1;fill-rule:nonzero;stroke:none" />
        </g>
        <g
           transform="translate(259.2842,376.5332)"
           id="g88"
           inkscape:export-filename="C:\Users\suitedoalex\sites\reddit-logo-17.png"
           inkscape:export-xdpi="2095.1289"
           inkscape:export-ydpi="2095.1289">
          <path
             inkscape:connector-curvature="0"
             d="m 0,0 h 2.99 c 2.656,1.382 4.624,6.34 4.624,12.261 0,6.99 -2.74,12.656 -6.119,12.656 -3.38,0 -6.119,-5.666 -6.119,-12.656 C -4.624,6.34 -2.656,1.382 0,0 Z"
             id="path90"
             style="fill:none;stroke:#000000;stroke-width:1.10000002;stroke-linecap:butt;stroke-linejoin:miter;stroke-miterlimit:4;stroke-dasharray:none;stroke-opacity:1" />
        </g>
        <g
           transform="translate(273.0176,400.2695)"
           id="g92"
           inkscape:export-filename="C:\Users\suitedoalex\sites\reddit-logo-17.png"
           inkscape:export-xdpi="2095.1289"
           inkscape:export-ydpi="2095.1289">
          <path
             inkscape:connector-curvature="0"
             d="m 0,0 c 0,-4.411 -5.479,-7.986 -12.239,-7.986 -6.759,0 -12.238,3.575 -12.238,7.986 0,4.411 5.479,7.987 12.238,7.987 C -5.479,7.987 0,4.411 0,0"
             id="path94"
             style="fill:#ffffff;fill-opacity:1;fill-rule:nonzero;stroke:none" />
        </g>
        <g
           transform="translate(273.0176,400.2695)"
           id="g96"
           inkscape:export-filename="C:\Users\suitedoalex\sites\reddit-logo-17.png"
           inkscape:export-xdpi="2095.1289"
           inkscape:export-ydpi="2095.1289">
          <path
             inkscape:connector-curvature="0"
             d="m 0,0 c 0,-4.411 -5.479,-7.986 -12.239,-7.986 -6.759,0 -12.238,3.575 -12.238,7.986 0,4.411 5.479,7.987 12.238,7.987 C -5.479,7.987 0,4.411 0,0 Z"
             id="path98"
             style="fill:none;stroke:#000000;stroke-width:1.10000002;stroke-linecap:butt;stroke-linejoin:miter;stroke-miterlimit:4;stroke-dasharray:none;stroke-opacity:1" />
        </g>
        <g
           transform="translate(257.5601,376.5361)"
           id="g100"
           inkscape:export-filename="C:\Users\suitedoalex\sites\reddit-logo-17.png"
           inkscape:export-xdpi="2095.1289"
           inkscape:export-ydpi="2095.1289">
          <path
             inkscape:connector-curvature="0"
             d="M 0,0 H 6.596"
             id="path102"
             style="fill:none;stroke:#000000;stroke-width:1.10000002;stroke-linecap:round;stroke-linejoin:round;stroke-miterlimit:4;stroke-dasharray:none;stroke-opacity:1" />
        </g>
        <g
           transform="translate(280.6885,392.415)"
           id="g104">
          <path
             inkscape:connector-curvature="0"
             d="M 0,0 C 0,0.444 0.133,0.797 0.401,1.059 0.669,1.318 0.993,1.45 1.375,1.45 1.764,1.45 2.096,1.322 2.368,1.067 2.642,0.809 2.779,0.455 2.779,0 v -1.441 h 0.063 c 0.421,0.736 0.973,1.401 1.66,1.996 0.687,0.593 1.407,0.907 2.159,0.938 0.422,0 0.794,-0.14 1.12,-0.416 C 8.106,0.8 8.271,0.457 8.271,0.045 8.271,-0.437 8.104,-0.79 7.77,-1.017 7.436,-1.244 6.95,-1.439 6.313,-1.604 5.677,-1.77 5.264,-1.902 5.075,-2.007 3.544,-2.837 2.779,-4.258 2.779,-6.269 v -8.276 c 0,-0.459 -0.129,-0.815 -0.387,-1.067 -0.258,-0.253 -0.577,-0.379 -0.956,-0.379 -0.401,0 -0.741,0.132 -1.019,0.397 C 0.138,-15.327 0,-14.954 0,-14.479 Z"
             id="path106"
             style="fill:#000000;fill-opacity:1;fill-rule:nonzero;stroke:none" />
        </g>
        <g
           transform="translate(280.6885,392.415)"
           id="g108">
          <path
             inkscape:connector-curvature="0"
             d="M 0,0 C 0,0.444 0.133,0.797 0.401,1.059 0.669,1.318 0.993,1.45 1.375,1.45 1.764,1.45 2.096,1.322 2.368,1.067 2.642,0.809 2.779,0.455 2.779,0 v -1.441 h 0.063 c 0.421,0.736 0.973,1.401 1.66,1.996 0.687,0.593 1.407,0.907 2.159,0.938 0.422,0 0.794,-0.14 1.12,-0.416 C 8.106,0.8 8.271,0.457 8.271,0.045 8.271,-0.437 8.104,-0.79 7.77,-1.017 7.436,-1.244 6.95,-1.439 6.313,-1.604 5.677,-1.77 5.264,-1.902 5.075,-2.007 3.544,-2.837 2.779,-4.258 2.779,-6.269 v -8.276 c 0,-0.459 -0.129,-0.815 -0.387,-1.067 -0.258,-0.253 -0.577,-0.379 -0.956,-0.379 -0.401,0 -0.741,0.132 -1.019,0.397 C 0.138,-15.327 0,-14.954 0,-14.479 Z"
             id="path110"
             style="fill:none;stroke:#000000;stroke-width:0.59799999;stroke-linecap:butt;stroke-linejoin:miter;stroke-miterlimit:4;stroke-dasharray:none;stroke-opacity:1" />
        </g>
        <g
           transform="translate(292.5103,386.2129)"
           id="g112">
          <path
             inkscape:connector-curvature="0"
             d="M 0,0 H 9.404 C 9.374,1.569 8.956,2.826 8.151,3.781 7.346,4.734 6.244,5.228 4.843,5.259 3.417,5.259 2.27,4.796 1.399,3.876 0.529,2.954 0.063,1.661 0,0 m -2.845,-0.894 c 0.063,1.46 0.399,2.843 1.005,4.155 0.607,1.308 1.472,2.368 2.596,3.183 1.123,0.814 2.444,1.23 3.962,1.251 1.473,0 2.782,-0.397 3.927,-1.192 1.143,-0.795 2.026,-1.847 2.648,-3.157 0.623,-1.312 0.934,-2.68 0.934,-4.11 0,-0.916 -0.523,-1.375 -1.569,-1.375 L 0,-2.139 c 0.021,-1.136 0.263,-2.097 0.729,-2.879 0.465,-0.782 1.087,-1.366 1.869,-1.754 0.781,-0.387 1.646,-0.58 2.598,-0.58 1.667,0 3.199,0.589 4.593,1.769 0.48,0.347 0.833,0.519 1.058,0.519 0.314,0 0.557,-0.117 0.733,-0.35 0.175,-0.233 0.262,-0.516 0.262,-0.846 0,-0.357 -0.138,-0.7 -0.414,-1.029 -0.629,-0.667 -1.52,-1.25 -2.673,-1.75 -1.153,-0.5 -2.394,-0.75 -3.722,-0.75 -1.392,0 -2.602,0.261 -3.629,0.787 -1.028,0.523 -1.855,1.222 -2.483,2.088 -0.629,0.867 -1.086,1.805 -1.374,2.812 -0.287,1.004 -0.439,2.022 -0.454,3.051 0.027,0.052 0.043,0.091 0.051,0.113 0.007,0.025 0.011,0.038 0.011,0.044"
             id="path114"
             style="fill:#000000;fill-opacity:1;fill-rule:nonzero;stroke:none" />
        </g>
        <g
           transform="translate(292.5103,386.2129)"
           id="g116">
          <path
             inkscape:connector-curvature="0"
             d="M 0,0 H 9.404 C 9.374,1.569 8.956,2.826 8.151,3.781 7.346,4.734 6.244,5.228 4.843,5.259 3.417,5.259 2.27,4.796 1.399,3.876 0.529,2.954 0.063,1.661 0,0 Z m -2.845,-0.894 c 0.063,1.46 0.399,2.843 1.005,4.155 0.607,1.308 1.472,2.368 2.596,3.183 1.123,0.814 2.444,1.23 3.962,1.251 1.473,0 2.782,-0.397 3.927,-1.192 1.143,-0.795 2.026,-1.847 2.648,-3.157 0.623,-1.312 0.934,-2.68 0.934,-4.11 0,-0.916 -0.523,-1.375 -1.569,-1.375 L 0,-2.139 c 0.021,-1.136 0.263,-2.097 0.729,-2.879 0.465,-0.782 1.087,-1.366 1.869,-1.754 0.781,-0.387 1.646,-0.58 2.598,-0.58 1.667,0 3.199,0.589 4.593,1.769 0.48,0.347 0.833,0.519 1.058,0.519 0.314,0 0.557,-0.117 0.733,-0.35 0.175,-0.233 0.262,-0.516 0.262,-0.846 0,-0.357 -0.138,-0.7 -0.414,-1.029 -0.629,-0.667 -1.52,-1.25 -2.673,-1.75 -1.153,-0.5 -2.394,-0.75 -3.722,-0.75 -1.392,0 -2.602,0.261 -3.629,0.787 -1.028,0.523 -1.855,1.222 -2.483,2.088 -0.629,0.867 -1.086,1.805 -1.374,2.812 -0.287,1.004 -0.439,2.022 -0.454,3.051 0.027,0.052 0.043,0.091 0.051,0.113 0.007,0.025 0.011,0.038 0.011,0.044 z"
             id="path118"
             style="fill:none;stroke:#000000;stroke-width:0.59799999;stroke-linecap:butt;stroke-linejoin:miter;stroke-miterlimit:4;stroke-dasharray:none;stroke-opacity:1" />
        </g>
        <g
           transform="translate(309.4863,385.2158)"
           id="g120">
          <path
             inkscape:connector-curvature="0"
             d="m 0,0 c 0,-1.734 0.374,-3.213 1.124,-4.436 0.747,-1.222 1.865,-1.863 3.348,-1.918 1.182,0 2.139,0.305 2.876,0.92 0.73,0.613 1.255,1.393 1.567,2.338 0.316,0.946 0.484,1.956 0.513,3.033 0,1.239 -0.2,2.34 -0.603,3.304 C 8.425,4.204 7.866,4.949 7.153,5.472 6.438,5.994 5.631,6.256 4.729,6.256 3.665,6.256 2.783,5.941 2.078,5.32 1.374,4.695 0.857,3.909 0.529,2.963 0.203,2.018 0.027,1.029 0,0 m 9.107,6.389 v 8.415 c 0,0.44 0.137,0.784 0.41,1.035 0.274,0.252 0.598,0.377 0.968,0.377 0.413,0 0.755,-0.125 1.031,-0.376 0.274,-0.251 0.412,-0.616 0.412,-1.096 V -7.344 c 0,-0.455 -0.142,-0.808 -0.424,-1.065 -0.281,-0.256 -0.622,-0.383 -1.019,-0.383 -0.353,0 -0.673,0.127 -0.956,0.382 -0.281,0.255 -0.422,0.589 -0.422,0.999 v 0.922 H 9.042 C 8.739,-7.104 8.244,-7.631 7.554,-8.075 6.865,-8.518 5.934,-8.756 4.761,-8.792 c -1.505,0 -2.828,0.367 -3.963,1.104 -1.137,0.735 -2.017,1.76 -2.645,3.077 -0.624,1.314 -0.948,2.806 -0.974,4.478 0,1.196 0.174,2.333 0.524,3.413 0.351,1.082 0.846,2.025 1.484,2.833 0.638,0.805 1.404,1.437 2.295,1.893 0.892,0.457 1.87,0.686 2.933,0.686 1.917,0 3.462,-0.768 4.627,-2.303 z"
             id="path122"
             style="fill:#000000;fill-opacity:1;fill-rule:nonzero;stroke:none" />
        </g>
        <g
           transform="translate(309.4863,385.2158)"
           id="g124">
          <path
             inkscape:connector-curvature="0"
             d="m 0,0 c 0,-1.734 0.374,-3.213 1.124,-4.436 0.747,-1.222 1.865,-1.863 3.348,-1.918 1.182,0 2.139,0.305 2.876,0.92 0.73,0.613 1.255,1.393 1.567,2.338 0.316,0.946 0.484,1.956 0.513,3.033 0,1.239 -0.2,2.34 -0.603,3.304 C 8.425,4.204 7.866,4.949 7.153,5.472 6.438,5.994 5.631,6.256 4.729,6.256 3.665,6.256 2.783,5.941 2.078,5.32 1.374,4.695 0.857,3.909 0.529,2.963 0.203,2.018 0.027,1.029 0,0 Z m 9.107,6.389 v 8.415 c 0,0.44 0.137,0.784 0.41,1.035 0.274,0.252 0.598,0.377 0.968,0.377 0.413,0 0.755,-0.125 1.031,-0.376 0.274,-0.251 0.412,-0.616 0.412,-1.096 V -7.344 c 0,-0.455 -0.142,-0.808 -0.424,-1.065 -0.281,-0.256 -0.622,-0.383 -1.019,-0.383 -0.353,0 -0.673,0.127 -0.956,0.382 -0.281,0.255 -0.422,0.589 -0.422,0.999 v 0.922 H 9.042 C 8.739,-7.104 8.244,-7.631 7.554,-8.075 6.865,-8.518 5.934,-8.756 4.761,-8.792 c -1.505,0 -2.828,0.367 -3.963,1.104 -1.137,0.735 -2.017,1.76 -2.645,3.077 -0.624,1.314 -0.948,2.806 -0.974,4.478 0,1.196 0.174,2.333 0.524,3.413 0.351,1.082 0.846,2.025 1.484,2.833 0.638,0.805 1.404,1.437 2.295,1.893 0.892,0.457 1.87,0.686 2.933,0.686 1.917,0 3.462,-0.768 4.627,-2.303 z"
             id="path126"
             style="fill:none;stroke:#000000;stroke-width:0.59799999;stroke-linecap:butt;stroke-linejoin:miter;stroke-miterlimit:4;stroke-dasharray:none;stroke-opacity:1" />
        </g>
        <g
           transform="translate(327.3467,385.2158)"
           id="g128">
          <path
             inkscape:connector-curvature="0"
             d="m 0,0 c 0,-1.734 0.373,-3.213 1.123,-4.436 0.749,-1.222 1.865,-1.863 3.349,-1.918 1.182,0 2.141,0.305 2.872,0.92 0.735,0.613 1.258,1.393 1.571,2.338 0.314,0.946 0.485,1.956 0.512,3.033 0,1.239 -0.2,2.34 -0.601,3.304 C 8.426,4.204 7.867,4.949 7.153,5.472 6.438,5.994 5.63,6.256 4.729,6.256 3.665,6.256 2.781,5.941 2.077,5.32 1.372,4.695 0.858,3.909 0.53,2.963 0.202,2.018 0.026,1.029 0,0 m 9.104,6.389 v 8.415 c 0,0.44 0.138,0.784 0.414,1.035 0.274,0.252 0.595,0.377 0.966,0.377 0.412,0 0.758,-0.125 1.031,-0.376 0.275,-0.251 0.411,-0.616 0.411,-1.096 V -7.344 c 0,-0.455 -0.141,-0.808 -0.422,-1.065 -0.282,-0.256 -0.624,-0.383 -1.02,-0.383 -0.354,0 -0.673,0.127 -0.955,0.382 -0.282,0.255 -0.425,0.589 -0.425,0.999 v 0.922 H 9.042 C 8.738,-7.104 8.243,-7.631 7.554,-8.075 6.866,-8.518 5.935,-8.756 4.761,-8.792 c -1.506,0 -2.827,0.367 -3.964,1.104 -1.138,0.735 -2.018,1.76 -2.643,3.077 -0.624,1.314 -0.95,2.806 -0.975,4.478 0,1.196 0.175,2.333 0.525,3.413 0.351,1.082 0.844,2.025 1.482,2.833 0.639,0.805 1.404,1.437 2.295,1.893 0.892,0.457 1.87,0.686 2.932,0.686 1.918,0 3.462,-0.768 4.629,-2.303 z"
             id="path130"
             style="fill:#000000;fill-opacity:1;fill-rule:nonzero;stroke:none" />
        </g>
        <g
           transform="translate(327.3467,385.2158)"
           id="g132">
          <path
             inkscape:connector-curvature="0"
             d="m 0,0 c 0,-1.734 0.373,-3.213 1.123,-4.436 0.749,-1.222 1.865,-1.863 3.349,-1.918 1.182,0 2.141,0.305 2.872,0.92 0.735,0.613 1.258,1.393 1.571,2.338 0.314,0.946 0.485,1.956 0.512,3.033 0,1.239 -0.2,2.34 -0.601,3.304 C 8.426,4.204 7.867,4.949 7.153,5.472 6.438,5.994 5.63,6.256 4.729,6.256 3.665,6.256 2.781,5.941 2.077,5.32 1.372,4.695 0.858,3.909 0.53,2.963 0.202,2.018 0.026,1.029 0,0 Z m 9.104,6.389 v 8.415 c 0,0.44 0.138,0.784 0.414,1.035 0.274,0.252 0.595,0.377 0.966,0.377 0.412,0 0.758,-0.125 1.031,-0.376 0.275,-0.251 0.411,-0.616 0.411,-1.096 V -7.344 c 0,-0.455 -0.141,-0.808 -0.422,-1.065 -0.282,-0.256 -0.624,-0.383 -1.02,-0.383 -0.354,0 -0.673,0.127 -0.955,0.382 -0.282,0.255 -0.425,0.589 -0.425,0.999 v 0.922 H 9.042 C 8.738,-7.104 8.243,-7.631 7.554,-8.075 6.866,-8.518 5.935,-8.756 4.761,-8.792 c -1.506,0 -2.827,0.367 -3.964,1.104 -1.138,0.735 -2.018,1.76 -2.643,3.077 -0.624,1.314 -0.95,2.806 -0.975,4.478 0,1.196 0.175,2.333 0.525,3.413 0.351,1.082 0.844,2.025 1.482,2.833 0.639,0.805 1.404,1.437 2.295,1.893 0.892,0.457 1.87,0.686 2.932,0.686 1.918,0 3.462,-0.768 4.629,-2.303 z"
             id="path134"
             style="fill:none;stroke:#000000;stroke-width:0.59799999;stroke-linecap:butt;stroke-linejoin:miter;stroke-miterlimit:4;stroke-dasharray:none;stroke-opacity:1" />
        </g>
        <g
           transform="translate(351.7471,391.2998)"
           id="g136">
          <path
             inkscape:connector-curvature="0"
             d="m 0,0 h -1.245 c -0.4,0 -0.721,0.114 -0.963,0.341 -0.24,0.227 -0.379,0.509 -0.421,0.843 0.083,0.836 0.545,1.254 1.384,1.254 H 0 v 3.814 c 0,0.416 0.134,0.74 0.4,0.97 0.267,0.228 0.591,0.343 0.978,0.343 0.41,0 0.755,-0.116 1.031,-0.348 C 2.684,6.984 2.824,6.64 2.824,6.182 V 2.438 H 4.067 C 4.496,2.438 4.822,2.322 5.046,2.093 5.271,1.863 5.384,1.562 5.384,1.184 5.384,0.864 5.271,0.588 5.055,0.354 4.834,0.119 4.551,0 4.201,0 H 2.824 v -13.488 c 0,-0.429 -0.149,-0.768 -0.443,-1.017 -0.293,-0.248 -0.651,-0.371 -1.065,-0.371 -0.37,0 -0.685,0.123 -0.935,0.371 C 0.129,-14.256 0,-13.896 0,-13.427 Z"
             id="path138"
             style="fill:#000000;fill-opacity:1;fill-rule:nonzero;stroke:none" />
        </g>
        <g
           transform="translate(351.7471,391.2998)"
           id="g140">
          <path
             inkscape:connector-curvature="0"
             d="m 0,0 h -1.245 c -0.4,0 -0.721,0.114 -0.963,0.341 -0.24,0.227 -0.379,0.509 -0.421,0.843 0.083,0.836 0.545,1.254 1.384,1.254 H 0 v 3.814 c 0,0.416 0.134,0.74 0.4,0.97 0.267,0.228 0.591,0.343 0.978,0.343 0.41,0 0.755,-0.116 1.031,-0.348 C 2.684,6.984 2.824,6.64 2.824,6.182 V 2.438 H 4.067 C 4.496,2.438 4.822,2.322 5.046,2.093 5.271,1.863 5.384,1.562 5.384,1.184 5.384,0.864 5.271,0.588 5.055,0.354 4.834,0.119 4.551,0 4.201,0 H 2.824 v -13.488 c 0,-0.429 -0.149,-0.768 -0.443,-1.017 -0.293,-0.248 -0.651,-0.371 -1.065,-0.371 -0.37,0 -0.685,0.123 -0.935,0.371 C 0.129,-14.256 0,-13.896 0,-13.427 Z"
             id="path142"
             style="fill:none;stroke:#000000;stroke-width:0.59799999;stroke-linecap:butt;stroke-linejoin:miter;stroke-miterlimit:4;stroke-dasharray:none;stroke-opacity:1" />
        </g>
        <g
           transform="translate(346.8604,398.5088)"
           id="g144">
          <path
             inkscape:connector-curvature="0"
             d="m 0,0 c 0,-1.275 -1.034,-2.309 -2.309,-2.309 -1.275,0 -2.308,1.034 -2.308,2.309 0,1.275 1.033,2.309 2.308,2.309 C -1.034,2.309 0,1.275 0,0"
             id="path146"
             style="fill:#ffffff;fill-opacity:1;fill-rule:nonzero;stroke:none" />
        </g>
        <g
           transform="translate(346.8604,398.5088)"
           id="g148">
          <path
             inkscape:connector-curvature="0"
             d="m 0,0 c 0,-1.275 -1.034,-2.309 -2.309,-2.309 -1.275,0 -2.308,1.034 -2.308,2.309 0,1.275 1.033,2.309 2.308,2.309 C -1.034,2.309 0,1.275 0,0 Z"
             id="path150"
             style="fill:none;stroke:#000000;stroke-width:1.60000002;stroke-linecap:butt;stroke-linejoin:miter;stroke-miterlimit:4;stroke-dasharray:none;stroke-opacity:1" />
        </g>
        <g
           transform="translate(344.5557,392.5674)"
           id="g152">
          <path
             inkscape:connector-curvature="0"
             d="M 0,0 V -14.792"
             id="path154"
             style="fill:none;stroke:#000000;stroke-width:3.3599999;stroke-linecap:round;stroke-linejoin:miter;stroke-miterlimit:4;stroke-dasharray:none;stroke-opacity:1" />
        </g>
        <g
           transform="translate(257.9604,401.8286)"
           id="g156"
           inkscape:export-filename="C:\Users\suitedoalex\sites\reddit-logo-17.png"
           inkscape:export-xdpi="2095.1289"
           inkscape:export-ydpi="2095.1289">
          <path
             inkscape:connector-curvature="0"
             d="m 0,0 c 0,-0.79 -0.641,-1.43 -1.43,-1.43 -0.791,0 -1.431,0.64 -1.431,1.43 0,0.791 0.64,1.431 1.431,1.431 C -0.641,1.431 0,0.791 0,0"
             id="path158"
             style="fill:#ff4500;fill-opacity:1;fill-rule:nonzero;stroke:none" />
        </g>
        <g
           transform="translate(257.9604,401.8286)"
           id="g160"
           inkscape:export-filename="C:\Users\suitedoalex\sites\reddit-logo-17.png"
           inkscape:export-xdpi="2095.1289"
           inkscape:export-ydpi="2095.1289">
          <path
             inkscape:connector-curvature="0"
             d="m 0,0 c 0,-0.79 -0.641,-1.43 -1.43,-1.43 -0.791,0 -1.431,0.64 -1.431,1.43 0,0.791 0.64,1.431 1.431,1.431 C -0.641,1.431 0,0.791 0,0 Z"
             id="path162"
             style="fill:none;stroke:#ff4500;stroke-width:1.10000002;stroke-linecap:butt;stroke-linejoin:miter;stroke-miterlimit:4;stroke-dasharray:none;stroke-opacity:1" />
        </g>
        <g
           transform="translate(266.583,401.8286)"
           id="g164"
           inkscape:export-filename="C:\Users\suitedoalex\sites\reddit-logo-17.png"
           inkscape:export-xdpi="2095.1289"
           inkscape:export-ydpi="2095.1289">
          <path
             inkscape:connector-curvature="0"
             d="m 0,0 c 0,-0.79 -0.64,-1.43 -1.43,-1.43 -0.789,0 -1.43,0.64 -1.43,1.43 0,0.791 0.641,1.431 1.43,1.431 C -0.64,1.431 0,0.791 0,0"
             id="path166"
             style="fill:#ff4500;fill-opacity:1;fill-rule:nonzero;stroke:none" />
        </g>
        <g
           transform="translate(266.583,401.8286)"
           id="g168"
           inkscape:export-filename="C:\Users\suitedoalex\sites\reddit-logo-17.png"
           inkscape:export-xdpi="2095.1289"
           inkscape:export-ydpi="2095.1289">
          <path
             inkscape:connector-curvature="0"
             d="m 0,0 c 0,-0.79 -0.64,-1.43 -1.43,-1.43 -0.789,0 -1.43,0.64 -1.43,1.43 0,0.791 0.641,1.431 1.43,1.431 C -0.64,1.431 0,0.791 0,0 Z"
             id="path170"
             style="fill:none;stroke:#ff4500;stroke-width:1.10000002;stroke-linecap:butt;stroke-linejoin:miter;stroke-miterlimit:4;stroke-dasharray:none;stroke-opacity:1" />
        </g>
        <g
           transform="translate(256.6104,396.5933)"
           id="g172"
           inkscape:export-filename="C:\Users\suitedoalex\sites\reddit-logo-17.png"
           inkscape:export-xdpi="2095.1289"
           inkscape:export-ydpi="2095.1289">
          <path
             inkscape:connector-curvature="0"
             d="M 0,0 C 1.066,-1.066 2.786,-1.271 4.212,-1.271"
             id="path174"
             style="fill:none;stroke:#000000;stroke-width:1.10000002;stroke-linecap:round;stroke-linejoin:miter;stroke-miterlimit:4;stroke-dasharray:none;stroke-opacity:1" />
        </g>
        <g
           transform="translate(265.0654,396.5933)"
           id="g176"
           inkscape:export-filename="C:\Users\suitedoalex\sites\reddit-logo-17.png"
           inkscape:export-xdpi="2095.1289"
           inkscape:export-ydpi="2095.1289">
          <path
             inkscape:connector-curvature="0"
             d="M 0,0 C -1.067,-1.066 -2.785,-1.271 -4.212,-1.271"
             id="path178"
             style="fill:none;stroke:#000000;stroke-width:1.10000002;stroke-linecap:round;stroke-linejoin:miter;stroke-miterlimit:4;stroke-dasharray:none;stroke-opacity:1" />
        </g>
      </g>
    </g>
  </g>
</svg>
